Coordinates
version=1
nRows=14
nColumns=36
inDegrees=yes

Units are S.I. units (second, meters, Newtons, ...)
If the header above contains a line with 'inDegrees', this indicates whether rotational values are in degrees (yes) or radians (no).

endheader
time	pelvis_tilt	pelvis_list	pelvis_rotation	pelvis_tx	pelvis_ty	pelvis_tz	hip_flexion_r	hip_adduction_r	hip_rotation_r	knee_angle_r	knee_angle_r_beta	ankle_angle_r	subtalar_angle_r	mtp_angle_r	hip_flexion_l	hip_adduction_l	hip_rotation_l	knee_angle_l	knee_angle_l_beta	ankle_angle_l	subtalar_angle_l	mtp_angle_l	lumbar_extension	lumbar_bending	lumbar_rotation	arm_flex_r	arm_add_r	arm_rot_r	elbow_flex_r	pro_sup_r	arm_flex_l	arm_add_l	arm_rot_l	elbow_flex_l	pro_sup_l
      0.00000000	      3.35640097	     -0.96096842	      4.07458395	      0.02780678	      0.80713925	      0.10959459	     -2.56334786	      0.52498214	     -8.01057328	      3.89458263	      0.06797329	      5.79890877	     -1.14045637	     -8.75558523	     -3.67920641	     -5.64372342	     -5.13524043	      3.01229560	      0.05257448	     13.03635572	      2.98952609	     -8.75558523	     -2.86908743	      2.87315503	      2.11872912	     53.87473801	     18.61018759	     64.62592020	    123.72828838	     98.21905912	     31.09492727	     17.80887256	     35.67433963	    145.71639083	    101.25635641
      0.01666670	      1.10435113	     -1.25513561	      3.78127392	      0.03107431	      0.80340646	      0.10913221	      0.52582336	      0.84250892	     -7.27338248	      4.69210201	      0.08189263	      8.01290589	     -1.58182212	     -8.18485436	     -1.17244024	     -5.32428325	     -4.45225110	      3.47756099	      0.06069489	     13.16232333	      2.65976348	     -8.18485436	      0.52847500	      2.76641086	      2.46986004	     55.50051623	     18.64450817	     64.05090049	    125.44530097	    103.26663564	     31.65354387	     20.49727839	     36.09219173	    146.07672243	    100.06141980
      0.03333330	     -0.02658844	     -0.40649657	      3.27313568	      0.03236444	      0.80312259	      0.11043464	      1.43435644	     -0.01865449	     -8.01134004	      3.96837660	      0.06926124	      7.18025683	     -1.30033569	     -8.10848311	      0.09121449	     -4.44234093	     -5.23549828	      3.25956160	      0.05689008	     12.18379624	      2.37460863	     -8.10848311	      2.05589775	      1.36082374	      3.32733425	     55.25609259	     18.67383061	     62.96315280	    126.05170567	    101.05824738	     31.96858288	     20.65783488	     38.04111041	    145.64769931	     97.76847851
      0.05000000	     -0.39445225	      0.14079172	      3.00461438	      0.03079261	      0.80488780	      0.11201375	      1.70286539	     -0.48639482	     -8.28214590	      3.42635485	      0.05980117	      6.96446517	     -0.72442019	     -7.94015641	      0.19488995	     -3.89642631	     -5.36574109	      2.75769519	      0.04813086	     11.37429817	      1.81282437	     -7.94015641	      2.44463361	      0.40141991	      3.57389173	     55.17800729	     18.90952857	     63.09748183	    126.29702218	    104.77916722	     32.39400516	     20.47928242	     40.14568862	    144.68572768	    100.16583552
      0.06666670	     -0.52353613	      0.34555542	      2.88611974	      0.03008120	      0.80369044	      0.11271469	      1.81537405	     -0.60773092	     -8.37118875	      3.11718283	      0.05440510	      6.39795705	     -0.72540733	     -7.74876765	      0.28787789	     -3.68440584	     -5.00254745	      2.41669283	      0.04217925	     10.64777871	      1.02777420	     -7.74876765	      2.52173837	      0.14303742	      3.51717093	     55.28646044	     19.19606567	     63.97202704	    126.06606647	    104.93574374	     32.96655491	     20.14773610	     41.40341114	    144.28362828	    100.37956303
      0.08333330	     -0.48705590	      0.49923782	      2.72088049	      0.02974909	      0.80287277	      0.11294630	      1.78057770	     -0.66755017	     -8.22216357	      2.89594339	      0.05054375	      5.99135070	     -0.95988090	     -7.65213984	      0.29047623	     -3.49449578	     -4.94840091	      2.07324239	      0.03618491	     10.24445472	      0.68562478	     -7.65213984	      2.37080181	     -0.06409536	      3.27779766	     55.37165549	     19.46315797	     64.93244804	    126.14998774	    104.83176011	     33.48381888	     19.66538700	     41.63965052	    143.45245597	    100.08365879
      0.10000000	     -0.52591767	      0.55878262	      2.73036896	      0.02848527	      0.80195194	      0.11317767	      1.85686019	     -0.70442465	     -8.05660366	      2.82619440	      0.04932640	      5.66162296	     -1.35244771	     -7.57236840	      0.39224733	     -3.39661692	     -4.50724850	      1.86889825	      0.03261843	      9.94679638	      0.08577920	     -7.57236840	      2.28081687	     -0.13781259	      2.78007257	     55.30338642	     19.72392100	     65.84704657	    126.22160499	    105.00166037	     33.85625382	     19.04226595	     40.73169854	    142.00526936	     99.55731816
      0.11666670	     -0.47234130	      0.61893201	      2.76998816	      0.02937338	      0.80345730	      0.11317525	      1.76823864	     -0.73696996	     -8.04212328	      2.78879572	      0.04867367	      5.28829804	     -1.60515917	     -7.52978008	      0.31425891	     -3.30413068	     -4.38126243	      1.67720010	      0.02927266	      9.59369191	     -0.19029974	     -7.52978008	      2.08294000	     -0.20770785	      2.17670829	     55.01710512	     19.94440329	     66.54896285	    126.11576580	    105.12923016	     33.90056368	     18.46944729	     38.99888143	    139.71461787	     98.61126469
      0.13333330	     -0.44216211	      0.63605258	      2.80261183	      0.02935410	      0.80342401	      0.11343666	      1.74008993	     -0.74613812	     -8.05042955	      2.76148824	      0.04819706	      5.12865929	     -1.69412057	     -7.51282077	      0.19900247	     -3.27106345	     -4.13345369	      1.63542391	      0.02854353	      9.52063951	     -0.41081717	     -7.51282077	      1.94614383	     -0.22280746	      1.93272573	     54.79568114	     19.91083801	     66.90552117	    126.00627305	    104.98151064	     33.65548504	     18.24218887	     37.75441536	    137.75258736	     97.63146155
      0.15000000	     -0.32931108	      0.61750551	      2.80786517	      0.02842810	      0.80283118	      0.11364602	      1.62278279	     -0.68718836	     -7.87936841	      2.76958462	      0.04833837	      4.83095176	     -2.11075927	     -7.50625306	      0.05256763	     -3.28086393	     -3.90816197	      1.66194378	      0.02900639	      9.42975450	     -0.76414842	     -7.50625306	      1.76903238	     -0.21631258	      1.79327058	     54.66651964	     19.84627769	     66.96492554	    125.86363875	    104.87480740	     33.33018461	     18.13838668	     36.27604583	    136.06203230	     96.58669294
      0.16666670	     -0.23037518	      0.55807820	      2.71551046	      0.02828579	      0.80387072	      0.11403309	      1.57195907	     -0.59118174	     -7.76875257	      2.75980846	      0.04816774	      4.58148907	     -2.38641027	     -7.50236936	     -0.14534494	     -3.34767154	     -3.99125992	      1.75276642	      0.03059155	      9.63284880	     -0.64856402	     -7.50236936	      1.61566895	     -0.17033135	      2.07334870	     54.91340684	     19.56406001	     66.89402691	    125.50371555	    105.26092394	     32.63915862	     18.47836619	     36.90183343	    137.34557405	     95.73532221
      0.18333330	     -0.14707927	      0.51486365	      2.82688973	      0.02894759	      0.80569182	      0.11303215	      1.42572053	     -0.51031052	     -7.73182076	      2.66423468	      0.04649967	      4.26347458	     -2.58949414	     -7.50090853	     -0.28154077	     -3.36186202	     -3.66218496	      1.74431729	      0.03044408	      9.54035831	     -0.99123796	     -7.50090853	      1.51504407	     -0.14080048	      2.22011609	     54.94791235	     19.39424797	     66.68560788	    125.33288586	    105.37093487	     32.24122959	     18.67465591	     36.88355902	    137.56917759	     94.96828748
      0.20000000	     -0.06058424	      0.57505936	      2.90424689	      0.02918938	      0.80739750	      0.11366299	      1.25309329	     -0.54100098	     -7.79336080	      2.48712661	      0.04340855	      3.99808723	     -2.53447325	     -7.50027925	     -0.33595230	     -3.30619218	     -3.66608683	      1.78253188	      0.03111105	      9.19389166	     -1.09056017	     -7.50027925	      1.36191715	     -0.24734139	      2.36431049	     54.92114339	     19.06380272	     66.64904830	    125.36580755	    105.77618779	     32.02031603	     18.85532869	     36.82305815	    137.75810442	     94.00239502
      0.21666670	      0.02207572	      0.57781774	      2.91909233	      0.02919605	      0.80710286	      0.11381690	      1.09587720	     -0.52548689	     -7.60227775	      2.35126861	      0.04103738	      3.93098710	     -2.41361205	     -7.50011421	     -0.63525706	     -3.33710301	     -3.68737694	      1.88422133	      0.03288587	      9.25238234	     -0.91524408	     -7.50011421	      1.29091156	     -0.26057099	      2.38741271	     55.03085210	     18.89914286	     66.57221171	    125.32172544	    105.86197382	     31.83789824	     18.86459524	     36.66251292	    137.77953769	     94.06424716
